<?xml version="1.0" encoding="utf-8"?>
<!-- Generator: Adobe Illustrator 22.0.0, SVG Export Plug-In . SVG Version: 6.00 Build 0)  -->
<svg version="1.1" id="Layer_1" xmlns="http://www.w3.org/2000/svg" xmlns:xlink="http://www.w3.org/1999/xlink" x="0px" y="0px"
	 viewBox="0 0 512 360" style="enable-background:new 0 0 512 360;" xml:space="preserve">
<style type="text/css">
	.st0{enable-background:new    ;}
	.st1{fill:#7C7C7C;}
	.st2{fill:#7B7B7B;}
	.st3{fill:#E6E6E6;}
	.st4{fill:#4F154D;}
	.st5{fill:#93278F;}
</style>
<g>
	<g>
		<g class="st0">
			<g>
				<polygon class="st1" points="371.2,132.6 385.9,118 394.1,149.2 379.4,163.7 				"/>
			</g>
			<g>
				<polygon class="st2" points="379.4,163.7 394.1,149.2 424,149.2 409.3,163.7 				"/>
			</g>
			<g>
				<polygon class="st3" points="424,149.2 394.1,149.2 385.9,118 415.9,118 				"/>
			</g>
		</g>
		<g class="st0">
			<g>
				<polygon class="st1" points="333,101.4 347.7,86.9 355.9,118 341.2,132.6 				"/>
			</g>
			<g>
				<polygon class="st2" points="341.2,132.6 355.9,118 385.9,118 371.2,132.6 				"/>
			</g>
			<g>
				<polygon class="st3" points="385.9,118 355.9,118 347.7,86.9 377.7,86.9 				"/>
			</g>
		</g>
		<g class="st0">
			<g>
				<polygon class="st1" points="349.4,163.7 364.1,149.2 372.3,180.4 357.6,194.9 				"/>
			</g>
			<g>
				<polygon class="st2" points="357.6,194.9 372.3,180.4 402.2,180.4 387.6,194.9 				"/>
			</g>
			<g>
				<polygon class="st3" points="402.2,180.4 372.3,180.4 364.1,149.2 394.1,149.2 				"/>
			</g>
			<g>
				<polygon class="st1" points="311.2,132.6 325.9,118 334.1,149.2 319.4,163.7 				"/>
			</g>
			<g>
				<polygon class="st2" points="319.4,163.7 334.1,149.2 364.1,149.2 349.4,163.7 				"/>
			</g>
			<g>
				<polygon class="st3" points="364.1,149.2 334.1,149.2 325.9,118 355.9,118 				"/>
			</g>
		</g>
		<g class="st0">
			<g>
				<polygon class="st1" points="387.6,194.9 402.2,180.4 410.4,211.5 395.7,226 				"/>
			</g>
			<g>
				<polygon class="st3" points="440.4,211.5 410.4,211.5 402.2,180.4 432.2,180.4 				"/>
			</g>
			<g>
				<polygon class="st2" points="395.7,226 410.4,211.5 440.4,211.5 425.7,226 				"/>
			</g>
			<g>
				<polygon class="st1" points="365.7,226 380.4,211.5 388.6,242.7 373.9,257.2 				"/>
			</g>
			<g>
				<polygon class="st3" points="418.6,242.7 388.6,242.7 380.4,211.5 410.4,211.5 				"/>
			</g>
			<g>
				<polygon class="st2" points="373.9,257.2 388.6,242.7 418.6,242.7 403.9,257.2 				"/>
			</g>
			<g>
				<polygon class="st3" points="380.4,211.5 350.5,211.5 342.3,180.4 372.3,180.4 				"/>
			</g>
			<g>
				<polygon class="st1" points="327.6,194.9 342.3,180.4 350.5,211.5 335.8,226 				"/>
			</g>
			<g>
				<polygon class="st2" points="335.8,226 350.5,211.5 380.4,211.5 365.7,226 				"/>
			</g>
			<g>
				<polygon class="st3" points="342.3,180.4 312.3,180.4 304.1,149.2 334.1,149.2 				"/>
			</g>
			<g>
				<polygon class="st1" points="289.4,163.7 304.1,149.2 312.3,180.4 297.6,194.9 				"/>
			</g>
			<g>
				<polygon class="st2" points="297.6,194.9 312.3,180.4 342.3,180.4 327.6,194.9 				"/>
			</g>
			<g>
				<polygon class="st1" points="344,257.2 358.6,242.7 366.8,273.8 352.1,288.4 				"/>
			</g>
			<g>
				<polygon class="st3" points="396.8,273.8 366.8,273.8 358.6,242.7 388.6,242.7 				"/>
			</g>
			<g>
				<polygon class="st2" points="352.1,288.4 366.8,273.8 396.8,273.8 382.1,288.4 				"/>
			</g>
			<g>
				<polygon class="st1" points="305.8,226 320.5,211.5 328.7,242.7 314,257.2 				"/>
			</g>
			<g>
				<polygon class="st3" points="358.6,242.7 328.7,242.7 320.5,211.5 350.5,211.5 				"/>
			</g>
			<g>
				<polygon class="st2" points="314,257.2 328.7,242.7 358.6,242.7 344,257.2 				"/>
			</g>
			<g>
				<polygon class="st1" points="267.7,194.9 282.3,180.4 290.5,211.5 275.8,226 				"/>
			</g>
			<g>
				<polygon class="st3" points="320.5,211.5 290.5,211.5 282.3,180.4 312.3,180.4 				"/>
			</g>
			<g>
				<polygon class="st2" points="275.8,226 290.5,211.5 320.5,211.5 305.8,226 				"/>
			</g>
		</g>
		<g class="st0">
			<g>
				<polygon class="st1" points="256.7,39.1 271.4,24.6 279.6,55.7 264.9,70.3 				"/>
			</g>
			<g>
				<polygon class="st2" points="264.9,70.3 279.6,55.7 309.6,55.7 294.9,70.3 				"/>
			</g>
			<g>
				<polygon class="st3" points="309.6,55.7 279.6,55.7 271.4,24.6 301.4,24.6 				"/>
			</g>
		</g>
		<g class="st0">
			<g>
				<polygon class="st1" points="294.9,70.3 309.6,55.7 317.8,86.9 303.1,101.4 				"/>
			</g>
			<g>
				<polygon class="st2" points="303.1,101.4 317.8,86.9 347.7,86.9 333,101.4 				"/>
			</g>
			<g>
				<polygon class="st3" points="347.7,86.9 317.8,86.9 309.6,55.7 339.6,55.7 				"/>
			</g>
		</g>
		<g class="st0">
			<g>
				<polygon class="st1" points="234.9,70.3 249.6,55.7 257.8,86.9 243.1,101.4 				"/>
			</g>
			<g>
				<polygon class="st3" points="287.8,86.9 257.8,86.9 249.6,55.7 279.6,55.7 				"/>
			</g>
			<g>
				<polygon class="st2" points="243.1,101.4 257.8,86.9 287.8,86.9 273.1,101.4 				"/>
			</g>
			<g>
				<polygon class="st2" points="205,70.3 219.7,55.7 249.6,55.7 234.9,70.3 				"/>
			</g>
			<g>
				<polygon class="st1" points="196.8,39.1 211.5,24.6 219.7,55.7 205,70.3 				"/>
			</g>
			<g>
				<polygon class="st3" points="249.6,55.7 219.7,55.7 211.5,24.6 241.5,24.6 				"/>
			</g>
		</g>
		<g class="st0">
			<g>
				<polygon class="st1" points="273.1,101.4 287.8,86.9 296,118 281.3,132.6 				"/>
			</g>
			<g>
				<polygon class="st2" points="281.3,132.6 296,118 325.9,118 311.2,132.6 				"/>
			</g>
			<g>
				<polygon class="st3" points="325.9,118 296,118 287.8,86.9 317.8,86.9 				"/>
			</g>
		</g>
		<g class="st0">
			<g>
				<polygon class="st1" points="251.3,132.6 266,118 274.2,149.2 259.5,163.7 				"/>
			</g>
			<g>
				<polygon class="st2" points="259.5,163.7 274.2,149.2 304.1,149.2 289.4,163.7 				"/>
			</g>
			<g>
				<polygon class="st3" points="304.1,149.2 274.2,149.2 266,118 296,118 				"/>
			</g>
		</g>
		<g class="st0">
			<g>
				<polygon class="st1" points="229.5,163.7 244.2,149.2 252.4,180.4 237.7,194.9 				"/>
			</g>
			<g>
				<polygon class="st2" points="237.7,194.9 252.4,180.4 282.3,180.4 267.7,194.9 				"/>
			</g>
			<g>
				<polygon class="st3" points="282.3,180.4 252.4,180.4 244.2,149.2 274.2,149.2 				"/>
			</g>
		</g>
		<g class="st0">
			<g>
				<polygon class="st1" points="213.1,101.4 227.8,86.9 236,118 221.3,132.6 				"/>
			</g>
			<g>
				<polygon class="st2" points="221.3,132.6 236,118 266,118 251.3,132.6 				"/>
			</g>
			<g>
				<polygon class="st3" points="266,118 236,118 227.8,86.9 257.8,86.9 				"/>
			</g>
		</g>
		<g class="st0">
			<g>
				<polygon class="st2" points="175,70.3 189.7,55.7 189.8,55.7 175.2,70.3 				"/>
			</g>
			<g>
				<polygon class="st2" points="183.3,101.4 198,86.9 227.8,86.9 213.1,101.4 				"/>
			</g>
			<g>
				<polygon class="st2" points="183.2,101.4 197.9,86.9 198,86.9 183.3,101.4 				"/>
			</g>
			<g>
				<polygon class="st1" points="175,70.3 189.7,55.7 197.9,86.9 183.2,101.4 				"/>
			</g>
			<g>
				<polygon class="st3" points="227.8,86.9 198,86.9 197.9,86.9 189.7,55.7 189.8,55.7 219.7,55.7 				"/>
			</g>
			<g>
				<polygon class="st2" points="145.2,70.3 159.9,55.7 189.7,55.7 175,70.3 				"/>
			</g>
			<g>
				<polygon class="st1" points="137,39.1 151.7,24.6 159.9,55.7 145.2,70.3 				"/>
			</g>
			<g>
				<polygon class="st3" points="189.8,55.7 189.7,55.7 159.9,55.7 151.7,24.6 181.7,24.6 				"/>
			</g>
		</g>
		<g class="st0">
			<g>
				<polygon class="st2" points="191.4,132.6 206,118 206.2,118 191.5,132.6 				"/>
			</g>
			<g>
				<polygon class="st2" points="161.5,132.6 176.2,118 206,118 191.4,132.6 				"/>
			</g>
			<g>
				<polygon class="st1" points="153.4,101.4 168,86.9 176.2,118 161.5,132.6 				"/>
			</g>
			<g>
				<polygon class="st3" points="206.2,118 206,118 176.2,118 168,86.9 197.9,86.9 198,86.9 				"/>
			</g>
		</g>
		<g class="st0">
			<g>
				<polygon class="st2" points="199.7,163.7 214.4,149.2 244.2,149.2 229.5,163.7 				"/>
			</g>
			<g>
				<polygon class="st2" points="199.5,163.7 214.2,149.2 214.4,149.2 199.7,163.7 				"/>
			</g>
			<g>
				<polygon class="st1" points="191.4,132.6 206,118 214.2,149.2 199.5,163.7 				"/>
			</g>
			<g>
				<polygon class="st3" points="244.2,149.2 214.4,149.2 214.2,149.2 206,118 206.2,118 236,118 				"/>
			</g>
		</g>
		<g class="st0">
			<g>
				<polygon class="st2" points="123.4,101.4 138.1,86.9 168,86.9 153.4,101.4 				"/>
			</g>
			<g>
				<polygon class="st3" points="168,86.9 138.1,86.9 129.9,55.7 159.9,55.7 				"/>
			</g>
			<g>
				<polygon class="st1" points="115.2,70.3 129.9,55.7 138.1,86.9 123.4,101.4 				"/>
			</g>
			<g>
				<polygon class="st3" points="146.2,118 116.3,118 108.1,86.9 138.1,86.9 				"/>
			</g>
			<g>
				<polygon class="st2" points="101.6,132.6 116.3,118 146.2,118 131.6,132.6 				"/>
			</g>
			<g>
				<polygon class="st1" points="93.4,101.4 108.1,86.9 116.3,118 101.6,132.6 				"/>
			</g>
			<g>
				<polygon class="st1" points="71.6,132.6 86.3,118 94.5,149.2 79.8,163.7 				"/>
			</g>
			<g>
				<polygon class="st2" points="79.8,163.7 94.5,149.2 124.5,149.2 109.8,163.7 				"/>
			</g>
			<g>
				<polygon class="st3" points="124.5,149.2 94.5,149.2 86.3,118 116.3,118 				"/>
			</g>
		</g>
		<g class="st0">
			<g>
				<polygon class="st1" points="131.6,132.6 146.2,118 154.4,149.2 139.7,163.7 				"/>
			</g>
			<g>
				<polygon class="st2" points="139.7,163.7 154.4,149.2 184.4,149.2 169.7,163.7 				"/>
			</g>
			<g>
				<polygon class="st3" points="184.4,149.2 154.4,149.2 146.2,118 176.2,118 				"/>
			</g>
		</g>
		<g class="st0">
			<g>
				<polygon class="st1" points="169.7,163.7 184.4,149.2 192.6,180.4 177.9,194.9 				"/>
			</g>
			<g>
				<polygon class="st2" points="177.9,194.9 192.6,180.4 222.6,180.4 207.9,194.9 				"/>
			</g>
			<g>
				<polygon class="st3" points="222.6,180.4 192.6,180.4 184.4,149.2 214.2,149.2 214.4,149.2 				"/>
			</g>
		</g>
		<g class="st0">
			<g>
				<polygon class="st1" points="147.9,194.9 162.6,180.4 170.8,211.5 156.1,226 				"/>
			</g>
			<g>
				<polygon class="st2" points="156.1,226 170.8,211.5 200.8,211.5 186.1,226 				"/>
			</g>
			<g>
				<polygon class="st3" points="200.8,211.5 170.8,211.5 162.6,180.4 192.6,180.4 				"/>
			</g>
		</g>
		<g class="st0">
			<g>
				<polygon class="st1" points="207.7,194.9 222.4,180.4 230.6,211.5 215.9,226 				"/>
			</g>
			<g>
				<polygon class="st2" points="215.9,226 230.6,211.5 260.5,211.5 245.9,226 				"/>
			</g>
			<g>
				<polygon class="st3" points="260.5,211.5 230.6,211.5 222.4,180.4 252.4,180.4 				"/>
			</g>
		</g>
		<g class="st0">
			<g>
				<polygon class="st2" points="224.1,257.2 238.7,242.7 238.9,242.7 224.2,257.2 				"/>
			</g>
			<g>
				<polygon class="st2" points="194.2,257.2 208.9,242.7 238.7,242.7 224.1,257.2 				"/>
			</g>
			<g>
				<polygon class="st1" points="186.1,226 200.8,211.5 208.9,242.7 194.2,257.2 				"/>
			</g>
			<g>
				<polygon class="st3" points="238.9,242.7 238.7,242.7 208.9,242.7 200.8,211.5 230.7,211.5 				"/>
			</g>
		</g>
		<g class="st0">
			<g>
				<polygon class="st1" points="164.3,257.2 179,242.7 187.1,273.8 172.4,288.4 				"/>
			</g>
			<g>
				<polygon class="st3" points="217.1,273.8 187.1,273.8 179,242.7 208.9,242.7 				"/>
			</g>
			<g>
				<polygon class="st2" points="172.4,288.4 187.1,273.8 217.1,273.8 202.4,288.4 				"/>
			</g>
			<g>
				<polygon class="st2" points="134.3,257.2 149,242.7 179,242.7 164.3,257.2 				"/>
			</g>
			<g>
				<polygon class="st1" points="126.1,226 140.8,211.5 149,242.7 134.3,257.2 				"/>
			</g>
			<g>
				<polygon class="st3" points="179,242.7 149,242.7 140.8,211.5 170.8,211.5 				"/>
			</g>
		</g>
		<g class="st0">
			<g>
				<polygon class="st1" points="109.8,163.7 124.5,149.2 132.6,180.4 117.9,194.9 				"/>
			</g>
			<g>
				<polygon class="st2" points="117.9,194.9 132.6,180.4 162.6,180.4 147.9,194.9 				"/>
			</g>
			<g>
				<polygon class="st3" points="162.6,180.4 132.6,180.4 124.5,149.2 154.4,149.2 				"/>
			</g>
		</g>
		<g class="st0">
			<g>
				<polygon class="st1" points="245.9,226 260.5,211.5 268.7,242.7 254,257.2 				"/>
			</g>
			<g>
				<polygon class="st2" points="254,257.2 268.7,242.7 298.7,242.7 284,257.2 				"/>
			</g>
			<g>
				<polygon class="st3" points="298.7,242.7 268.7,242.7 260.5,211.5 290.5,211.5 				"/>
			</g>
		</g>
		<g class="st0">
			<g>
				<polygon class="st1" points="224.1,257.2 238.7,242.7 246.9,273.8 232.2,288.4 				"/>
			</g>
			<g>
				<polygon class="st2" points="232.2,288.4 246.9,273.8 276.9,273.8 262.2,288.4 				"/>
			</g>
			<g>
				<polygon class="st3" points="276.9,273.8 246.9,273.8 238.7,242.7 238.9,242.7 268.7,242.7 				"/>
			</g>
			<g>
				<polygon class="st1" points="202.4,288.4 217.1,273.8 225.3,305 210.6,319.5 				"/>
			</g>
			<g>
				<polygon class="st2" points="210.6,319.5 225.3,305 255.3,305 240.6,319.5 				"/>
			</g>
			<g>
				<polygon class="st3" points="255.3,305 225.3,305 217.1,273.8 247.1,273.8 				"/>
			</g>
		</g>
		<g class="st0">
			<g>
				<polygon class="st1" points="284,257.2 298.7,242.7 306.9,273.8 292.2,288.4 				"/>
			</g>
			<g>
				<polygon class="st2" points="292.2,288.4 306.9,273.8 336.8,273.8 322.2,288.4 				"/>
			</g>
			<g>
				<polygon class="st3" points="336.8,273.8 306.9,273.8 298.7,242.7 328.7,242.7 				"/>
			</g>
		</g>
		<g class="st0">
			<g>
				<polygon class="st1" points="262.2,288.4 276.9,273.8 285.1,305 270.4,319.5 				"/>
			</g>
			<g>
				<polygon class="st2" points="270.4,319.5 285.1,305 315,305 300.4,319.5 				"/>
			</g>
			<g>
				<polygon class="st3" points="315,305 285.1,305 276.9,273.8 306.9,273.8 				"/>
			</g>
		</g>
		<g class="st0">
			<g>
				<polygon class="st1" points="88,194.9 102.7,180.4 110.8,211.5 96.1,226 				"/>
			</g>
			<g>
				<polygon class="st2" points="96.1,226 110.8,211.5 140.8,211.5 126.1,226 				"/>
			</g>
			<g>
				<polygon class="st3" points="140.8,211.5 110.8,211.5 102.7,180.4 132.6,180.4 				"/>
			</g>
		</g>
		<g class="st0">
			<g>
				<polygon class="st1" points="322.2,288.4 336.8,273.8 345,305 330.3,319.5 				"/>
			</g>
			<g>
				<polygon class="st2" points="330.3,319.5 345,305 375,305 360.3,319.5 				"/>
			</g>
			<g>
				<polygon class="st3" points="375,305 345,305 336.8,273.8 366.8,273.8 				"/>
			</g>
		</g>
	</g>
</g>
<g>
	<g>
		<g class="st0">
			<g>
				<polygon class="st4" points="320.8,211.2 335.4,196.6 343.6,227.8 328.9,242.3 				"/>
			</g>
			<g>
				<polygon class="st4" points="328.9,242.3 343.6,227.8 373.6,227.8 358.9,242.3 				"/>
			</g>
			<g>
				<polygon class="st5" points="373.6,227.8 343.6,227.8 335.4,196.6 365.4,196.6 				"/>
			</g>
		</g>
		<g class="st0">
			<g>
				<polygon class="st4" points="288,86.5 302.7,72 310.9,103.2 296.2,117.7 				"/>
			</g>
			<g>
				<polygon class="st4" points="296.2,117.7 310.9,103.2 340.9,103.2 326.2,117.7 				"/>
			</g>
			<g>
				<polygon class="st5" points="340.9,103.2 310.9,103.2 302.7,72 332.7,72 				"/>
			</g>
		</g>
		<g class="st0">
			<g>
				<polygon class="st4" points="168.2,86.5 182.8,72 191,103.2 176.3,117.7 				"/>
			</g>
			<g>
				<polygon class="st4" points="176.3,117.7 191,103.2 221,103.2 206.3,117.7 				"/>
			</g>
			<g>
				<polygon class="st5" points="221,103.2 191,103.2 182.8,72 212.8,72 				"/>
			</g>
		</g>
		<g class="st0">
			<g>
				<polygon class="st4" points="206.3,117.7 221,103.2 229.2,134.3 214.5,148.9 				"/>
			</g>
			<g>
				<polygon class="st4" points="214.5,148.9 229.2,134.3 259.1,134.3 244.5,148.9 				"/>
			</g>
			<g>
				<polygon class="st5" points="259.1,134.3 229.2,134.3 221,103.2 251,103.2 				"/>
			</g>
		</g>
		<g class="st0">
			<g>
				<polygon class="st4" points="282.6,180 297.3,165.5 305.5,196.6 290.8,211.2 				"/>
			</g>
			<g>
				<polygon class="st4" points="290.8,211.2 305.5,196.6 335.4,196.6 320.8,211.2 				"/>
			</g>
			<g>
				<polygon class="st5" points="335.4,196.6 305.5,196.6 297.3,165.5 327.3,165.5 				"/>
			</g>
		</g>
		<g class="st0">
			<g>
				<polygon class="st4" points="266.2,117.7 280.9,103.2 289.1,134.3 274.4,148.9 				"/>
			</g>
			<g>
				<polygon class="st4" points="274.4,148.9 289.1,134.3 319.1,134.3 304.4,148.9 				"/>
			</g>
			<g>
				<polygon class="st5" points="319.1,134.3 289.1,134.3 280.9,103.2 310.9,103.2 				"/>
			</g>
			<g>
				<polygon class="st4" points="244.5,148.9 259.1,134.3 267.3,165.5 252.6,180 				"/>
			</g>
			<g>
				<polygon class="st4" points="252.6,180 267.3,165.5 297.3,165.5 282.6,180 				"/>
			</g>
			<g>
				<polygon class="st5" points="297.3,165.5 267.3,165.5 259.1,134.3 289.1,134.3 				"/>
			</g>
		</g>
		<g class="st0">
			<g>
				<polygon class="st4" points="222.7,180 237.3,165.5 245.5,196.6 230.8,211.2 				"/>
			</g>
			<g>
				<polygon class="st4" points="230.8,211.2 245.5,196.6 275.5,196.6 260.8,211.2 				"/>
			</g>
			<g>
				<polygon class="st5" points="275.5,196.6 245.5,196.6 237.3,165.5 267.3,165.5 				"/>
			</g>
		</g>
		<g class="st0">
			<g>
				<polygon class="st4" points="200.9,211.2 215.5,196.6 223.7,227.8 209,242.3 				"/>
			</g>
			<g>
				<polygon class="st4" points="209,242.3 223.7,227.8 253.7,227.8 239,242.3 				"/>
			</g>
			<g>
				<polygon class="st5" points="253.7,227.8 223.7,227.8 215.5,196.6 245.5,196.6 				"/>
			</g>
		</g>
	</g>
</g>
<g>
</g>
<g>
</g>
<g>
</g>
<g>
</g>
<g>
</g>
</svg>
